<svg width="48" height="70" viewBox="0 0 48 70" fill="none" xmlns="http://www.w3.org/2000/svg">
<path d="M40.2797 29.8048C41.845 25.4432 46.3538 12.8267 46.3538 8.78621C46.3538 5.22738 44.2532 2.24384 40.5071 2.24384C34.54 2.24384 29.1884 19.8641 27.516 24.0651C26.2182 20.2521 20.1441 0.986206 14.7925 0.986206C10.6316 0.986206 8.67827 4.05002 8.67827 7.90319C8.67827 12.626 13.2539 24.8679 14.9129 29.5773C14.07 29.2696 13.1603 29.002 12.2371 29.002C9.1064 29.002 5.77501 32.8953 5.77501 36.0394C5.77501 37.2301 6.43058 38.9025 6.84533 40.013C1.90845 41.3509 0.00862061 44.6422 0.00862061 49.6058C-0.00475848 59.2655 9.14654 69.4871 22.0172 69.4871C37.8045 69.4871 47.6248 57.6333 47.6248 42.341C47.6248 36.5746 46.7016 31.3701 40.2797 29.8048V29.8048ZM35.5435 15.4356C36.0786 13.79 38.3665 6.83287 40.5071 6.83287C41.6577 6.83287 41.9654 8.0236 41.9654 8.97352C41.9654 11.5289 36.8011 25.6439 35.6639 28.7746L31.115 27.9718L35.5435 15.4356V15.4356ZM12.8793 7.4483C12.8793 5.85619 14.8193 1.33406 19.0738 13.7499L23.703 27.1691C21.6158 26.9951 19.997 26.7677 18.9668 27.3564C17.5085 23.5032 12.8793 11.3416 12.8793 7.4483V7.4483ZM12.5716 33.6312C16.4917 33.6312 21.5489 46.2878 21.5489 48.0003C21.5489 48.6826 20.8934 49.5255 20.1308 49.5255C17.3345 49.5255 9.84225 39.237 9.84225 36.4542C9.85563 35.424 11.5414 33.6312 12.5716 33.6312V33.6312ZM37.2292 58.5564C33.3359 62.8377 28.3589 65.0586 22.5524 65.0586C14.6052 65.0586 8.33041 60.6971 5.30674 53.2449C3.01891 47.4384 5.81514 44.107 8.06283 44.107C9.58805 44.107 15.3277 52.1746 15.3277 53.8871C15.3277 54.5427 14.2975 54.9976 13.7623 54.9976C11.6083 54.9976 10.7654 52.9238 6.92561 48.1207C2.95202 52.0943 9.66832 59.7471 14.7256 59.7471C18.2176 59.7471 20.492 56.5094 19.8097 54.1279C20.3047 54.1279 20.9201 54.1681 21.375 54.0477C21.5222 57.6734 22.5925 61.9948 26.9541 62.3026C26.9541 62.1821 27.2217 61.3526 27.2217 61.3125C27.2217 58.9845 25.8035 56.9509 25.8035 54.5828C25.8035 50.7965 28.7068 47.1307 31.6502 44.99C32.7205 44.1873 34.0183 43.6922 35.2759 43.2374C36.5737 42.7423 37.9517 42.167 38.9418 41.177C38.7946 39.6785 38.1791 38.354 36.6807 38.354C32.9747 38.354 20.5455 38.8892 20.5455 33.0425C20.5455 32.1461 20.5589 31.2898 22.8735 31.2898C27.1949 31.2898 38.1658 32.3602 41.3767 35.1831C43.7984 37.3372 44.6279 50.3283 37.2292 58.5564V58.5564ZM24.0375 41.6988C25.3352 42.1135 26.6731 42.2339 28.011 42.5015C27.021 43.224 26.138 44.107 25.2951 45.0569C24.9205 43.9197 24.4656 42.8092 24.0375 41.6988V41.6988Z" fill="#AE431E"/>
</svg>
